<?xml version="1.0" standalone="no"?>
<!DOCTYPE svg PUBLIC "-//W3C//DTD SVG 20010904//EN"
 "http://www.w3.org/TR/2001/REC-SVG-20010904/DTD/svg10.dtd">
<svg version="1.0" xmlns="http://www.w3.org/2000/svg"
 width="260.000000pt" height="260.000000pt" viewBox="0 0 260.000000 260.000000"
 preserveAspectRatio="xMidYMid meet">
<metadata>
Created by potrace 1.11, written by Peter Selinger 2001-2013
</metadata>
<g transform="translate(0.000000,260.000000) scale(0.100000,-0.100000)"
fill="#000000" stroke="none">
<path d="M1105 2566 c-489 -82 -877 -409 -1029 -866 -47 -143 -61 -233 -61
-405 0 -229 35 -378 136 -581 173 -348 501 -596 899 -681 118 -25 372 -25 490
0 523 112 905 494 1017 1017 13 62 18 129 18 245 0 229 -35 378 -136 581 -172
346 -502 597 -894 679 -106 23 -337 28 -440 11z"/>
</g>
</svg>
